<svg xmlns="http://www.w3.org/2000/svg" viewBox="0 0 1200 630" fill="none">
  <defs>
    <linearGradient id="bg" x1="0" y1="0" x2="1200" y2="630" gradientUnits="userSpaceOnUse">
      <stop offset="0" stop-color="#FCF9F2"/>
      <stop offset="0.55" stop-color="#F6EEDC"/>
      <stop offset="1" stop-color="#EFE2C8"/>
    </linearGradient>
    <linearGradient id="head" x1="200" y1="120" x2="360" y2="440" gradientUnits="userSpaceOnUse">
      <stop offset="0" stop-color="#C87A4E"/>
      <stop offset="1" stop-color="#A9573A"/>
    </linearGradient>
    <linearGradient id="badge" x1="64" y1="32" x2="448" y2="480" gradientUnits="userSpaceOnUse">
      <stop offset="0" stop-color="#FDFCF7"/>
      <stop offset="1" stop-color="#F3EAD9"/>
    </linearGradient>
    <symbol id="weaseln" viewBox="0 0 512 512">
      <rect x="24" y="24" width="464" height="464" rx="116" fill="url(#badge)"/>
      <rect x="24" y="24" width="464" height="464" rx="116" stroke="#DF9F53" stroke-opacity="0.55" stroke-width="10"/>
      <circle cx="256" cy="256" r="206" stroke="#B76745" stroke-opacity="0.18" stroke-width="6"/>
      <g>
        <path d="M222 168 L124 92 L170 210 Z" fill="url(#head)" stroke="url(#head)" stroke-width="14" stroke-linejoin="round"/>
        <path d="M290 168 L388 92 L342 210 Z" fill="url(#head)" stroke="url(#head)" stroke-width="14" stroke-linejoin="round"/>
        <path d="M188 430 C 148 366 142 252 178 186 C 214 122 298 122 334 186 C 370 252 364 366 324 430 C 306 454 206 454 188 430 Z" fill="url(#head)"/>
        <path d="M208 176 L150 126 L184 196 Z" fill="#F8EFDC" opacity="0.9"/>
        <path d="M304 176 L362 126 L328 196 Z" fill="#F8EFDC" opacity="0.9"/>
        <path d="M218 306 C 234 288 278 288 294 306 C 316 328 322 360 308 388 C 296 408 272 414 256 414 C 240 414 216 408 204 388 C 190 360 196 328 218 306 Z" fill="#DF9F53"/>
        <circle cx="204" cy="252" r="17" fill="#2E2016"/>
        <circle cx="308" cy="252" r="17" fill="#2E2016"/>
        <circle cx="199" cy="247" r="6" fill="#FBF8F0"/>
        <circle cx="303" cy="247" r="6" fill="#FBF8F0"/>
        <ellipse cx="256" cy="322" rx="15" ry="10" fill="#2E2016"/>
        <path d="M238 384 Q256 398 274 384" stroke="#B76745" stroke-width="9" fill="none" stroke-linecap="round"/>
        <circle cx="196" cy="350" r="5" fill="#FBF8F0" opacity="0.95"/>
        <circle cx="188" cy="368" r="5" fill="#FBF8F0" opacity="0.95"/>
        <circle cx="200" cy="386" r="5" fill="#FBF8F0" opacity="0.95"/>
        <circle cx="316" cy="350" r="5" fill="#FBF8F0" opacity="0.95"/>
        <circle cx="324" cy="368" r="5" fill="#FBF8F0" opacity="0.95"/>
        <circle cx="312" cy="386" r="5" fill="#FBF8F0" opacity="0.95"/>
      </g>
    </symbol>
  </defs>
  <rect width="1200" height="630" fill="url(#bg)"/>
  <path d="M0 560 C 260 470 420 600 640 540 C 900 468 1080 570 1200 520 L 1200 630 L 0 630 Z" fill="#B76745" opacity="0.12"/>
  <circle cx="1080" cy="110" r="190" stroke="#DF9F53" stroke-opacity="0.45" stroke-width="4" fill="none"/>
  <circle cx="1080" cy="110" r="150" stroke="#DF9F53" stroke-opacity="0.3" stroke-width="4" fill="none"/>
  <circle cx="180" cy="84" r="18" fill="#FCF9F2"/>
  <circle cx="262" cy="112" r="11" fill="#DF9F53"/>
  <circle cx="114" cy="150" r="7" fill="#B76745" opacity="0.5"/>
  <circle cx="1130" cy="300" r="10" fill="#B76745" opacity="0.4"/>
  <circle cx="90" cy="560" r="24" fill="#FCF9F2"/>
  <circle cx="150" cy="588" r="12" fill="#DF9F53"/>
  <use href="#weaseln" transform="translate(84 132) scale(0.68)" opacity="0.98"/>
  <use href="#weaseln" transform="translate(1040 470) scale(0.16)" opacity="0.22"/>
  <text x="512" y="356" font-family="Inter, 'Segoe UI', system-ui, -apple-system, sans-serif" font-size="116" font-weight="800" letter-spacing="-3" fill="#2E2016">weaseln<tspan fill="#B76745">.</tspan></text>
  <text x="515" y="428" font-family="Inter, 'Segoe UI', system-ui, -apple-system, sans-serif" font-size="36" font-weight="500" letter-spacing="0" fill="#59402A">Tell your story to the world.</text>
  <rect x="516" y="466" width="150" height="10" rx="5" fill="#B76745"/>
</svg>